<svg xmlns="http://www.w3.org/2000/svg" width="50px" height="50px" viewBox="0 0 48 48">
  <g id="Group_5384" data-name="Group 5384" transform="translate(-24 -48)">
    <g id="Group_5383" data-name="Group 5383">
      <g id="Vector" transform="translate(24 48)" fill="none">
        <path d="M48,24A24,24,0,1,1,24,0,24,24,0,0,1,48,24Z" stroke="none"/>
        <path d="M 24 1 C 20.89458084106445 1 17.8825798034668 1.607978820800781 15.04766845703125 2.807041168212891 C 12.3089714050293 3.965419769287109 9.849151611328125 5.623939514160156 7.736549377441406 7.736549377441406 C 5.623939514160156 9.849151611328125 3.965419769287109 12.3089714050293 2.807041168212891 15.04766845703125 C 1.607978820800781 17.8825798034668 1 20.89458084106445 1 24 C 1 27.10541915893555 1.607978820800781 30.1174201965332 2.807041168212891 32.95233154296875 C 3.965419769287109 35.6910400390625 5.623939514160156 38.15085983276367 7.736549377441406 40.26345825195312 C 9.849151611328125 42.37606048583984 12.3089714050293 44.03458023071289 15.04766845703125 45.19295883178711 C 17.8825798034668 46.39202117919922 20.89458084106445 47 24 47 C 27.10541915893555 47 30.1174201965332 46.39202117919922 32.95233154296875 45.19295883178711 C 35.6910400390625 44.03458023071289 38.15085983276367 42.37606048583984 40.26345825195312 40.26345825195312 C 42.37606048583984 38.15085983276367 44.03458023071289 35.6910400390625 45.19295883178711 32.95233154296875 C 46.39202117919922 30.1174201965332 47 27.10541915893555 47 24 C 47 20.89458084106445 46.39202117919922 17.8825798034668 45.19295883178711 15.04766845703125 C 44.03458023071289 12.3089714050293 42.37606048583984 9.849151611328125 40.26345825195312 7.736549377441406 C 38.15085983276367 5.623939514160156 35.6910400390625 3.965419769287109 32.95233154296875 2.807041168212891 C 30.1174201965332 1.607978820800781 27.10541915893555 1 24 1 M 24 0 C 37.25484085083008 0 48 10.74517059326172 48 24 C 48 37.25484085083008 37.25484085083008 48 24 48 C 10.74517059326172 48 0 37.25484085083008 0 24 C 0 10.74517059326172 10.74517059326172 0 24 0 Z" stroke="none" fill="#e2e2e2"/>
      </g>
    </g>
  </g>
</svg>
