<svg xmlns="http://www.w3.org/2000/svg" width="26" height="26" viewBox="0 0 24 24">
  <g id="Group_5389" data-name="Group 5389" transform="translate(-36 -456)">
    <g id="Group_5388" data-name="Group 5388">
      <g id="Group_5117" data-name="Group 5117" transform="translate(-2856 99)">
        <rect id="Rectangle_945" data-name="Rectangle 945" width="24" height="24" transform="translate(2892 357)" fill="none"/>
        <g id="Group_1877" data-name="Group 1877" transform="translate(226.68 335.75)">
          <path id="Vector" d="M.7,4.186a.7.7,0,0,1-.7-.7V.7A.7.7,0,0,1,.7,0a.7.7,0,0,1,.7.7V3.488A.7.7,0,0,1,.7,4.186Z" transform="translate(2672.901 23.25)" fill="#717171"/>
          <path id="Vector-2" data-name="Vector" d="M.7,4.186a.7.7,0,0,1-.7-.7V.7A.7.7,0,0,1,.7,0a.7.7,0,0,1,.7.7V3.488A.7.7,0,0,1,.7,4.186Z" transform="translate(2680.343 23.25)" fill="#717171"/>
          <path id="Vector-3" data-name="Vector" d="M.93,1.855a.926.926,0,0,1-.353-.074.96.96,0,0,1-.307-.2A.961.961,0,0,1,0,.925.926.926,0,0,1,.074.572,1.074,1.074,0,0,1,.27.265a.96.96,0,0,1,.307-.2.95.95,0,0,1,1.014.2.978.978,0,0,1,.27.66,1.4,1.4,0,0,1-.019.186.591.591,0,0,1-.056.167.7.7,0,0,1-.084.167,1.466,1.466,0,0,1-.112.14A.978.978,0,0,1,.93,1.855Z" transform="translate(2673.134 33.72)" fill="#717171"/>
          <path id="Vector-4" data-name="Vector" d="M.93,1.859a.926.926,0,0,1-.353-.074.96.96,0,0,1-.307-.2A.961.961,0,0,1,0,.929.926.926,0,0,1,.074.576,1.074,1.074,0,0,1,.27.269a.96.96,0,0,1,.307-.2.932.932,0,0,1,1.014.2.978.978,0,0,1,.27.66,1.4,1.4,0,0,1-.019.186.591.591,0,0,1-.056.167A.7.7,0,0,1,1.7,1.45a1.466,1.466,0,0,1-.112.14A.978.978,0,0,1,.93,1.859Z" transform="translate(2676.39 33.716)" fill="#717171"/>
          <path id="Vector-5" data-name="Vector" d="M.93,1.859a.926.926,0,0,1-.353-.074.96.96,0,0,1-.307-.2L.158,1.45a.7.7,0,0,1-.084-.167.591.591,0,0,1-.056-.167A1.4,1.4,0,0,1,0,.929.978.978,0,0,1,.27.269a.96.96,0,0,1,.307-.2.929.929,0,0,1,1.014.2.978.978,0,0,1,.27.66,1.4,1.4,0,0,1-.019.186.591.591,0,0,1-.056.167A.7.7,0,0,1,1.7,1.45a1.466,1.466,0,0,1-.112.14A.978.978,0,0,1,.93,1.859Z" transform="translate(2679.645 33.716)" fill="#717171"/>
          <path id="Vector-6" data-name="Vector" d="M.93,1.849a.926.926,0,0,1-.353-.074,1.074,1.074,0,0,1-.307-.2A.978.978,0,0,1,0,.919.926.926,0,0,1,.074.565.868.868,0,0,1,.27.258a.974.974,0,0,1,1.321,0,.978.978,0,0,1,.27.66.978.978,0,0,1-.27.66A.978.978,0,0,1,.93,1.849Z" transform="translate(2673.134 36.983)" fill="#717171"/>
          <path id="Vector-7" data-name="Vector" d="M.93,1.849a.978.978,0,0,1-.66-.27A.978.978,0,0,1,0,.919.926.926,0,0,1,.074.565.868.868,0,0,1,.27.258a.974.974,0,0,1,1.321,0,.868.868,0,0,1,.2.307A.926.926,0,0,1,1.86.919a.978.978,0,0,1-.27.66A.978.978,0,0,1,.93,1.849Z" transform="translate(2676.39 36.983)" fill="#717171"/>
          <path id="Vector-8" data-name="Vector" d="M.93,1.861a.978.978,0,0,1-.66-.27.868.868,0,0,1-.2-.307A.926.926,0,0,1,0,.931.926.926,0,0,1,.074.578.868.868,0,0,1,.27.271.929.929,0,0,1,1.107.019a.561.561,0,0,1,.177.056.7.7,0,0,1,.167.084,1.466,1.466,0,0,1,.14.112.978.978,0,0,1,.27.66.978.978,0,0,1-.27.66A.978.978,0,0,1,.93,1.861Z" transform="translate(2679.645 36.97)" fill="#717171"/>
          <path id="Vector-9" data-name="Vector" d="M16.512,1.4H.7A.7.7,0,0,1,0,.7.7.7,0,0,1,.7,0H16.512a.7.7,0,0,1,.7.7A.7.7,0,0,1,16.512,1.4Z" transform="translate(2668.715 29.845)" fill="#717171"/>
          <path id="Vector-10" data-name="Vector" d="M12.791,18.6H5.349C1.953,18.6,0,16.651,0,13.256V5.349C0,1.953,1.953,0,5.349,0h7.442c3.4,0,5.349,1.953,5.349,5.349v7.907C18.14,16.651,16.186,18.6,12.791,18.6ZM5.349,1.4C2.688,1.4,1.4,2.688,1.4,5.349v7.907c0,2.66,1.293,3.953,3.953,3.953h7.442c2.66,0,3.953-1.293,3.953-3.953V5.349c0-2.66-1.293-3.953-3.953-3.953Z" transform="translate(2668.25 24.645)" fill="#717171"/>
        </g>
      </g>
    </g>
  </g>
</svg>
