<svg xmlns="http://www.w3.org/2000/svg" width="26" height="26" viewBox="0 0 24 24">
  <g id="Group_5392" data-name="Group 5392" transform="translate(-262 -1304)">
    <g id="Group_1717" data-name="Group 1717" transform="translate(87 932.5)">
      <rect id="Rectangle_779" data-name="Rectangle 779" width="24" height="24" transform="translate(175 371.5)" fill="none"/>
      <g id="Group_1716" data-name="Group 1716">
        <path id="Vector" d="M10,20A10,10,0,1,1,20,10,10.008,10.008,0,0,1,10,20ZM10,1.4A8.6,8.6,0,1,0,18.6,10,8.615,8.615,0,0,0,10,1.4Z" transform="translate(177 373.5)" fill="#717171"/>
        <path id="Vector-2" data-name="Vector" d="M8.14,1.4H.7A.7.7,0,0,1,0,.7.7.7,0,0,1,.7,0H8.14a.7.7,0,0,1,.7.7A.7.7,0,0,1,8.14,1.4Z" transform="translate(183.382 386.131) rotate(-45)" fill="#717171"/>
        <path id="Vector-3" data-name="Vector" d="M.7,8.837a.7.7,0,0,1-.7-.7V.7A.7.7,0,0,1,.7,0a.7.7,0,0,1,.7.7V8.14A.7.7,0,0,1,.7,8.837Z" transform="translate(183.382 380.869) rotate(-45)" fill="#717171"/>
      </g>
    </g>
  </g>
</svg>
