<svg xmlns="http://www.w3.org/2000/svg" width="26" height="26" viewBox="0 0 24 24">
  <g id="Group_5386" data-name="Group 5386" transform="translate(-36 -240)">
    <g id="Group_5114" data-name="Group 5114" transform="translate(6136 3851)">
      <path id="Vector" d="M0,0H24V24H0Z" transform="translate(-6100 -3611)" fill="none"/>
      <g id="Group_3442" data-name="Group 3442" transform="translate(-1.708 -1.25)">
        <path id="Vector-2" data-name="Vector" d="M5.023,9.737H4.948a.51.51,0,0,0-.169,0,4.831,4.831,0,1,1,.272,0Zm-.15-8.329a3.461,3.461,0,0,0-.131,6.92,1.55,1.55,0,0,1,.3,0,3.462,3.462,0,0,0-.169-6.92Z" transform="translate(-6091.165 -3607.75)" fill="#717171"/>
        <path id="Vector-3" data-name="Vector" d="M7.108,9.5A9.275,9.275,0,0,1,2.019,8.087,4.029,4.029,0,0,1,0,4.754,4.071,4.071,0,0,1,2.019,1.4,9.941,9.941,0,0,1,12.2,1.4a4.051,4.051,0,0,1,2.019,3.333A4.071,4.071,0,0,1,12.2,8.087,9.3,9.3,0,0,1,7.108,9.5ZM2.8,2.585a2.7,2.7,0,0,0-1.39,2.178A2.694,2.694,0,0,0,2.8,6.923a8.485,8.485,0,0,0,8.62,0,2.7,2.7,0,0,0,1.39-2.178,2.694,2.694,0,0,0-1.39-2.16A8.529,8.529,0,0,0,2.8,2.585Z" transform="translate(-6093.4 -3597.245)" fill="#717171"/>
      </g>
    </g>
  </g>
</svg>
