<svg id="Icons_-_Navigation_icon_12_states_" data-name="Icons - Navigation icon (12 states)" xmlns="http://www.w3.org/2000/svg" width="19.218" height="19.218" viewBox="0 0 19.218 19.218">
  <g id="_03_dashboard_layout_grid" data-name="03 dashboard, layout, grid" transform="translate(-1 -1)">
    <path id="Path_492" data-name="Path 492" d="M7.115,9.735H3.621A2.621,2.621,0,0,1,1,7.115V3.621A2.621,2.621,0,0,1,3.621,1H7.115A2.621,2.621,0,0,1,9.735,3.621V7.115A2.621,2.621,0,0,1,7.115,9.735ZM3.621,2.747a.874.874,0,0,0-.874.874V7.115a.874.874,0,0,0,.874.874H7.115a.874.874,0,0,0,.874-.874V3.621a.874.874,0,0,0-.874-.874ZM17.6,9.735H14.1a2.621,2.621,0,0,1-2.621-2.621V3.621A2.621,2.621,0,0,1,14.1,1H17.6a2.621,2.621,0,0,1,2.621,2.621V7.115A2.621,2.621,0,0,1,17.6,9.735ZM14.1,2.747a.874.874,0,0,0-.874.874V7.115a.874.874,0,0,0,.874.874H17.6a.874.874,0,0,0,.874-.874V3.621a.874.874,0,0,0-.874-.874ZM7.115,20.218H3.621A2.621,2.621,0,0,1,1,17.6V14.1a2.621,2.621,0,0,1,2.621-2.621H7.115A2.621,2.621,0,0,1,9.735,14.1V17.6A2.621,2.621,0,0,1,7.115,20.218ZM3.621,13.229a.874.874,0,0,0-.874.874V17.6a.874.874,0,0,0,.874.874H7.115a.874.874,0,0,0,.874-.874V14.1a.874.874,0,0,0-.874-.874ZM17.6,20.218H14.1A2.621,2.621,0,0,1,11.482,17.6V14.1A2.621,2.621,0,0,1,14.1,11.482H17.6A2.621,2.621,0,0,1,20.218,14.1V17.6A2.621,2.621,0,0,1,17.6,20.218ZM14.1,13.229a.874.874,0,0,0-.874.874V17.6a.874.874,0,0,0,.874.874H17.6a.874.874,0,0,0,.874-.874V14.1a.874.874,0,0,0-.874-.874Z" transform="translate(0 0)" fill="#ffb652"/>
  </g>
</svg>
