<svg id="folder" xmlns="http://www.w3.org/2000/svg" width="23.297" height="19.65" viewBox="0 0 23.297 19.65">
  <path id="Path_483" data-name="Path 483" d="M21.9,2.972H13.887a.028.028,0,0,1-.025-.015l-.826-1.676A1.407,1.407,0,0,0,11.78.5H6.937a1.4,1.4,0,0,0-1.4,1.4V3.27H4.167a1.4,1.4,0,0,0-1.4,1.4V6.039H1.4A1.4,1.4,0,0,0,0,7.437V18.752a1.4,1.4,0,0,0,1.4,1.4H16.36a1.4,1.4,0,0,0,1.4-1.4V17.381h1.371a1.4,1.4,0,0,0,1.4-1.4V14.612H21.9a1.4,1.4,0,0,0,1.4-1.4V4.371A1.4,1.4,0,0,0,21.9,2.972ZM16.36,18.78H1.4a.028.028,0,0,1-.028-.028V7.437A.028.028,0,0,1,1.4,7.409H6.242a.027.027,0,0,1,.013,0h0l0,0a.03.03,0,0,1,.006.007L7.094,9.1a1.39,1.39,0,0,0,1.254.78H16.36l.011,0a.028.028,0,0,1,.017.026c0,4.832,0,8.8,0,8.843A.028.028,0,0,1,16.36,18.78Zm2.8-2.8a.028.028,0,0,1-.028.028H17.758v-6.1a1.4,1.4,0,0,0-1.4-1.4H8.348A.028.028,0,0,1,8.323,8.5L7.5,6.818a1.39,1.39,0,0,0-1.254-.78H4.14V4.668a.028.028,0,0,1,.028-.028H9.011a.028.028,0,0,1,.025.016l.827,1.677a1.39,1.39,0,0,0,1.254.78h8.012a.028.028,0,0,1,.028.028Zm2.769-2.769a.028.028,0,0,1-.028.028H20.527V7.14a1.4,1.4,0,0,0-1.4-1.4H11.117a.028.028,0,0,1-.025-.016L10.265,4.05a1.389,1.389,0,0,0-1.254-.78h-2.1V1.9a.028.028,0,0,1,.028-.028H11.78a.028.028,0,0,1,.025.016l.827,1.677a1.39,1.39,0,0,0,1.254.779H21.9a.028.028,0,0,1,.028.028v8.843Zm0,0" transform="translate(0 -0.5)" fill="#ffb652"/>
</svg>
